<svg width="355" height="59" viewBox="0 0 355 59" fill="none" xmlns="http://www.w3.org/2000/svg">
<path d="M-73.5 58C-73.5 58.2761 -73.7239 58.5 -74 58.5C-74.2761 58.5 -74.5 58.2761 -74.5 58H-73.5ZM-74 1H-74.5V0.5H-74V1ZM-74.5 53.25C-74.5 52.9739 -74.2761 52.75 -74 52.75C-73.7239 52.75 -73.5 52.9739 -73.5 53.25H-74.5ZM-73.5 48.5C-73.5 48.7761 -73.7239 49 -74 49C-74.2761 49 -74.5 48.7761 -74.5 48.5H-73.5ZM-74.5 39C-74.5 38.7239 -74.2761 38.5 -74 38.5C-73.7239 38.5 -73.5 38.7239 -73.5 39H-74.5ZM-73.5 34.25C-73.5 34.5261 -73.7239 34.75 -74 34.75C-74.2761 34.75 -74.5 34.5261 -74.5 34.25H-73.5ZM-74.5 24.75C-74.5 24.4739 -74.2761 24.25 -74 24.25C-73.7239 24.25 -73.5 24.4739 -73.5 24.75H-74.5ZM-73.5 20C-73.5 20.2761 -73.7239 20.5 -74 20.5C-74.2761 20.5 -74.5 20.2761 -74.5 20H-73.5ZM-74.5 10.5C-74.5 10.2239 -74.2761 10 -74 10C-73.7239 10 -73.5 10.2239 -73.5 10.5H-74.5ZM-73.5 5.75C-73.5 6.02614 -73.7239 6.25 -74 6.25C-74.2761 6.25 -74.5 6.02614 -74.5 5.75H-73.5ZM-69.0156 0.5C-68.7395 0.5 -68.5156 0.723858 -68.5156 1C-68.5156 1.27614 -68.7395 1.5 -69.0156 1.5V0.5ZM-64.0312 1.5C-64.3073 1.5 -64.5312 1.27614 -64.5312 1C-64.5312 0.723858 -64.3073 0.5 -64.0312 0.5V1.5ZM-54.0624 0.5C-53.7863 0.5 -53.5624 0.723858 -53.5624 1C-53.5624 1.27614 -53.7863 1.5 -54.0624 1.5V0.5ZM-49.078 1.5C-49.3542 1.5 -49.578 1.27614 -49.578 1C-49.578 0.723858 -49.3542 0.5 -49.078 0.5V1.5ZM-39.1092 0.5C-38.8331 0.5 -38.6092 0.723858 -38.6092 1C-38.6092 1.27614 -38.8331 1.5 -39.1092 1.5V0.5ZM-34.1248 1.5C-34.401 1.5 -34.6248 1.27614 -34.6248 1C-34.6248 0.723858 -34.401 0.5 -34.1248 0.5V1.5ZM-24.156 0.5C-23.8799 0.5 -23.656 0.723858 -23.656 1C-23.656 1.27614 -23.8799 1.5 -24.156 1.5V0.5ZM-19.1716 1.5C-19.4478 1.5 -19.6716 1.27614 -19.6716 1C-19.6716 0.723858 -19.4478 0.5 -19.1716 0.5V1.5ZM-9.20284 0.5C-8.9267 0.5 -8.70284 0.723858 -8.70284 1C-8.70284 1.27614 -8.9267 1.5 -9.20284 1.5V0.5ZM-4.21844 1.5C-4.49458 1.5 -4.71844 1.27614 -4.71844 1C-4.71844 0.723858 -4.49458 0.5 -4.21844 0.5V1.5ZM5.75036 0.5C6.0265 0.5 6.25036 0.723858 6.25036 1C6.25036 1.27614 6.0265 1.5 5.75036 1.5V0.5ZM10.7348 1.5C10.4586 1.5 10.2348 1.27614 10.2348 1C10.2348 0.723858 10.4586 0.5 10.7348 0.5V1.5ZM20.7036 0.5C20.9797 0.5 21.2036 0.723858 21.2036 1C21.2036 1.27614 20.9797 1.5 20.7036 1.5V0.5ZM25.6879 1.5C25.4118 1.5 25.1879 1.27614 25.1879 1C25.1879 0.723858 25.4118 0.5 25.6879 0.5V1.5ZM35.6567 0.5C35.9329 0.5 36.1567 0.723858 36.1567 1C36.1567 1.27614 35.9329 1.5 35.6567 1.5V0.5ZM40.6411 1.5C40.365 1.5 40.1411 1.27614 40.1411 1C40.1411 0.723858 40.365 0.5 40.6411 0.5V1.5ZM50.6099 0.5C50.8861 0.5 51.1099 0.723858 51.1099 1C51.1099 1.27614 50.8861 1.5 50.6099 1.5V0.5ZM55.5943 1.5C55.3182 1.5 55.0943 1.27614 55.0943 1C55.0943 0.723858 55.3182 0.5 55.5943 0.5V1.5ZM65.5631 0.5C65.8393 0.5 66.0631 0.723858 66.0631 1C66.0631 1.27614 65.8393 1.5 65.5631 1.5V0.5ZM70.5475 1.5C70.2714 1.5 70.0475 1.27614 70.0475 1C70.0475 0.723858 70.2714 0.5 70.5475 0.5V1.5ZM80.5163 0.5C80.7924 0.5 81.0163 0.723858 81.0163 1C81.0163 1.27614 80.7924 1.5 80.5163 1.5V0.5ZM85.5007 1.5C85.2246 1.5 85.0007 1.27614 85.0007 1C85.0007 0.723858 85.2246 0.5 85.5007 0.5V1.5ZM95.4695 0.5C95.7456 0.5 95.9695 0.723858 95.9695 1C95.9695 1.27614 95.7456 1.5 95.4695 1.5V0.5ZM100.454 1.5C100.178 1.5 99.9539 1.27614 99.9539 1C99.9539 0.723858 100.178 0.5 100.454 0.5V1.5ZM110.423 0.5C110.699 0.5 110.923 0.723858 110.923 1C110.923 1.27614 110.699 1.5 110.423 1.5V0.5ZM115.407 1.5C115.131 1.5 114.907 1.27614 114.907 1C114.907 0.723858 115.131 0.5 115.407 0.5V1.5ZM125.376 0.5C125.652 0.5 125.876 0.723858 125.876 1C125.876 1.27614 125.652 1.5 125.376 1.5V0.5ZM130.36 1.5C130.084 1.5 129.86 1.27614 129.86 1C129.86 0.723858 130.084 0.5 130.36 0.5V1.5ZM140.329 0.5C140.605 0.5 140.829 0.723858 140.829 1C140.829 1.27614 140.605 1.5 140.329 1.5V0.5ZM145.313 1.5C145.037 1.5 144.813 1.27614 144.813 1C144.813 0.723858 145.037 0.5 145.313 0.5V1.5ZM155.282 0.5C155.558 0.5 155.782 0.723858 155.782 1C155.782 1.27614 155.558 1.5 155.282 1.5V0.5ZM160.267 1.5C159.99 1.5 159.767 1.27614 159.767 1C159.767 0.723858 159.99 0.5 160.267 0.5V1.5ZM170.235 0.5C170.512 0.5 170.735 0.723858 170.735 1C170.735 1.27614 170.512 1.5 170.235 1.5V0.5ZM175.22 1.5C174.944 1.5 174.72 1.27614 174.72 1C174.72 0.723858 174.944 0.5 175.22 0.5V1.5ZM185.189 0.5C185.465 0.5 185.689 0.723858 185.689 1C185.689 1.27614 185.465 1.5 185.189 1.5V0.5ZM190.173 1.5C189.897 1.5 189.673 1.27614 189.673 1C189.673 0.723858 189.897 0.5 190.173 0.5V1.5ZM200.142 0.5C200.418 0.5 200.642 0.723858 200.642 1C200.642 1.27614 200.418 1.5 200.142 1.5V0.5ZM205.126 1.5C204.85 1.5 204.626 1.27614 204.626 1C204.626 0.723858 204.85 0.5 205.126 0.5V1.5ZM214.94 0.5C215.216 0.5 215.44 0.723858 215.44 1C215.44 1.27614 215.216 1.5 214.94 1.5V0.5ZM219.77 1.5C219.494 1.5 219.27 1.27614 219.27 1C219.27 0.723858 219.494 0.5 219.77 0.5V1.5ZM229.429 0.5C229.705 0.5 229.929 0.723858 229.929 1C229.929 1.27614 229.705 1.5 229.429 1.5V0.5ZM234.259 1.5C233.983 1.5 233.759 1.27614 233.759 1C233.759 0.723858 233.983 0.5 234.259 0.5V1.5ZM243.918 0.5C244.194 0.5 244.418 0.723858 244.418 1C244.418 1.27614 244.194 1.5 243.918 1.5V0.5ZM248.748 1.5C248.472 1.5 248.248 1.27614 248.248 1C248.248 0.723858 248.472 0.5 248.748 0.5V1.5ZM258.407 0.5C258.683 0.5 258.907 0.723858 258.907 1C258.907 1.27614 258.683 1.5 258.407 1.5V0.5ZM263.237 1.5C262.961 1.5 262.737 1.27614 262.737 1C262.737 0.723858 262.961 0.5 263.237 0.5V1.5ZM272.896 0.5C273.172 0.5 273.396 0.723858 273.396 1C273.396 1.27614 273.172 1.5 272.896 1.5V0.5ZM277.726 1.5C277.45 1.5 277.226 1.27614 277.226 1C277.226 0.723858 277.45 0.5 277.726 0.5V1.5ZM287.385 0.5C287.661 0.5 287.885 0.723858 287.885 1C287.885 1.27614 287.661 1.5 287.385 1.5V0.5ZM292.215 1.5C291.938 1.5 291.715 1.27614 291.715 1C291.715 0.723858 291.938 0.5 292.215 0.5V1.5ZM301.874 0.5C302.15 0.5 302.374 0.723858 302.374 1C302.374 1.27614 302.15 1.5 301.874 1.5V0.5ZM306.704 1.5C306.427 1.5 306.204 1.27614 306.204 1C306.204 0.723858 306.427 0.5 306.704 0.5V1.5ZM316.363 0.5C316.639 0.5 316.863 0.723858 316.863 1C316.863 1.27614 316.639 1.5 316.363 1.5V0.5ZM321.192 1.5C320.916 1.5 320.692 1.27614 320.692 1C320.692 0.723858 320.916 0.5 321.192 0.5V1.5ZM330.852 0.5C331.128 0.5 331.352 0.723858 331.352 1C331.352 1.27614 331.128 1.5 330.852 1.5V0.5ZM335.681 1.5C335.405 1.5 335.181 1.27614 335.181 1C335.181 0.723858 335.405 0.5 335.681 0.5V1.5ZM345.341 0.5C345.617 0.5 345.841 0.723858 345.841 1C345.841 1.27614 345.617 1.5 345.341 1.5V0.5ZM350.17 1.5C349.894 1.5 349.67 1.27614 349.67 1C349.67 0.723858 349.894 0.5 350.17 0.5V1.5ZM-74.5 58V53.25H-73.5V58H-74.5ZM-74.5 48.5V39H-73.5V48.5H-74.5ZM-74.5 34.25V24.75H-73.5V34.25H-74.5ZM-74.5 20V10.5H-73.5V20H-74.5ZM-74.5 5.75V1H-73.5V5.75H-74.5ZM-74 0.5H-69.0156V1.5H-74V0.5ZM-64.0312 0.5H-54.0624V1.5H-64.0312V0.5ZM-49.078 0.5H-39.1092V1.5H-49.078V0.5ZM-34.1248 0.5H-24.156V1.5H-34.1248V0.5ZM-19.1716 0.5H-9.20284V1.5H-19.1716V0.5ZM-4.21844 0.5H5.75036V1.5H-4.21844V0.5ZM10.7348 0.5H20.7036V1.5H10.7348V0.5ZM25.6879 0.5H35.6567V1.5H25.6879V0.5ZM40.6411 0.5H50.6099V1.5H40.6411V0.5ZM55.5943 0.5H65.5631V1.5H55.5943V0.5ZM70.5475 0.5H80.5163V1.5H70.5475V0.5ZM85.5007 0.5H95.4695V1.5H85.5007V0.5ZM100.454 0.5H110.423V1.5H100.454V0.5ZM115.407 0.5H125.376V1.5H115.407V0.5ZM130.36 0.5H140.329V1.5H130.36V0.5ZM145.313 0.5H155.282V1.5H145.313V0.5ZM160.267 0.5H170.235V1.5H160.267V0.5ZM175.22 0.5H185.189V1.5H175.22V0.5ZM190.173 0.5H200.142V1.5H190.173V0.5ZM205.126 0.5H210.111V1.5H205.126V0.5ZM210.111 0.5H214.94V1.5H210.111V0.5ZM219.77 0.5H229.429V1.5H219.77V0.5ZM234.259 0.5H243.918V1.5H234.259V0.5ZM248.748 0.5H258.407V1.5H248.748V0.5ZM263.237 0.5H272.896V1.5H263.237V0.5ZM277.726 0.5H287.385V1.5H277.726V0.5ZM292.215 0.5H301.874V1.5H292.215V0.5ZM306.704 0.5H316.363V1.5H306.704V0.5ZM321.192 0.5H330.852V1.5H321.192V0.5ZM335.681 0.5H345.341V1.5H335.681V0.5ZM350.17 0.5H355V1.5H350.17V0.5Z" fill="#777777"/>
</svg>
