<svg width="365" height="31" viewBox="0 0 365 31" fill="none" xmlns="http://www.w3.org/2000/svg">
<path d="M1.5 30C1.5 30.2761 1.27614 30.5 1 30.5C0.723858 30.5 0.5 30.2761 0.5 30H1.5ZM1 0.999998H0.5V0.499998H1V0.999998ZM0.5 25.1667C0.5 24.8905 0.723858 24.6667 1 24.6667C1.27614 24.6667 1.5 24.8905 1.5 25.1667H0.5ZM1.5 20.3333C1.5 20.6095 1.27614 20.8333 1 20.8333C0.723858 20.8333 0.5 20.6095 0.5 20.3333H1.5ZM0.5 10.6667C0.5 10.3905 0.723858 10.1667 1 10.1667C1.27614 10.1667 1.5 10.3905 1.5 10.6667H0.5ZM1.5 5.83333C1.5 6.10947 1.27614 6.33333 1 6.33333C0.723858 6.33333 0.5 6.10947 0.5 5.83333H1.5ZM5.84253 0.499998C6.11867 0.499998 6.34253 0.723856 6.34253 0.999998C6.34253 1.27614 6.11867 1.5 5.84253 1.5V0.499998ZM10.6851 1.5C10.4089 1.5 10.1851 1.27614 10.1851 0.999998C10.1851 0.723856 10.4089 0.499998 10.6851 0.499998V1.5ZM20.3701 0.499998C20.6462 0.499998 20.8701 0.723856 20.8701 0.999998C20.8701 1.27614 20.6462 1.5 20.3701 1.5V0.499998ZM25.2126 1.5C24.9365 1.5 24.7126 1.27614 24.7126 0.999998C24.7126 0.723856 24.9365 0.499998 25.2126 0.499998V1.5ZM34.8977 0.499998C35.1738 0.499998 35.3977 0.723856 35.3977 0.999998C35.3977 1.27614 35.1738 1.5 34.8977 1.5V0.499998ZM39.7402 1.5C39.4641 1.5 39.2402 1.27614 39.2402 0.999998C39.2402 0.723856 39.4641 0.499998 39.7402 0.499998V1.5ZM49.4253 0.499998C49.7014 0.499998 49.9253 0.723856 49.9253 0.999998C49.9253 1.27614 49.7014 1.5 49.4253 1.5V0.499998ZM54.2678 1.5C53.9916 1.5 53.7678 1.27614 53.7678 0.999998C53.7678 0.723856 53.9916 0.499998 54.2678 0.499998V1.5ZM63.9528 0.499998C64.229 0.499998 64.4528 0.723856 64.4528 0.999998C64.4528 1.27614 64.229 1.5 63.9528 1.5V0.499998ZM68.7953 1.5C68.5192 1.5 68.2953 1.27614 68.2953 0.999998C68.2953 0.723856 68.5192 0.499998 68.7953 0.499998V1.5ZM78.4804 0.499998C78.7565 0.499998 78.9804 0.723856 78.9804 0.999998C78.9804 1.27614 78.7565 1.5 78.4804 1.5V0.499998ZM83.3229 1.5C83.0468 1.5 82.8229 1.27614 82.8229 0.999998C82.8229 0.723856 83.0468 0.499998 83.3229 0.499998V1.5ZM93.008 0.499998C93.2841 0.499998 93.508 0.723856 93.508 0.999998C93.508 1.27614 93.2841 1.5 93.008 1.5V0.499998ZM97.8505 1.5C97.5743 1.5 97.3505 1.27614 97.3505 0.999998C97.3505 0.723856 97.5743 0.499998 97.8505 0.499998V1.5ZM107.536 0.499998C107.812 0.499998 108.036 0.723856 108.036 0.999998C108.036 1.27614 107.812 1.5 107.536 1.5V0.499998ZM112.378 1.5C112.102 1.5 111.878 1.27614 111.878 0.999998C111.878 0.723856 112.102 0.499998 112.378 0.499998V1.5ZM122.063 0.499998C122.339 0.499998 122.563 0.723856 122.563 0.999998C122.563 1.27614 122.339 1.5 122.063 1.5V0.499998ZM126.906 1.5C126.63 1.5 126.406 1.27614 126.406 0.999998C126.406 0.723856 126.63 0.499998 126.906 0.499998V1.5ZM136.591 0.499998C136.867 0.499998 137.091 0.723856 137.091 0.999998C137.091 1.27614 136.867 1.5 136.591 1.5V0.499998ZM141.433 1.5C141.157 1.5 140.933 1.27614 140.933 0.999998C140.933 0.723856 141.157 0.499998 141.433 0.499998V1.5ZM151.118 0.499998C151.394 0.499998 151.618 0.723856 151.618 0.999998C151.618 1.27614 151.394 1.5 151.118 1.5V0.499998ZM155.961 1.5C155.685 1.5 155.461 1.27614 155.461 0.999998C155.461 0.723856 155.685 0.499998 155.961 0.499998V1.5ZM165.646 0.499998C165.922 0.499998 166.146 0.723856 166.146 0.999998C166.146 1.27614 165.922 1.5 165.646 1.5V0.499998ZM170.488 1.5C170.212 1.5 169.988 1.27614 169.988 0.999998C169.988 0.723856 170.212 0.499998 170.488 0.499998V1.5ZM180.173 0.499998C180.45 0.499998 180.673 0.723856 180.673 0.999998C180.673 1.27614 180.45 1.5 180.173 1.5V0.499998ZM185.016 1.5C184.74 1.5 184.516 1.27614 184.516 0.999998C184.516 0.723856 184.74 0.499998 185.016 0.499998V1.5ZM194.724 0.499998C195 0.499998 195.224 0.723856 195.224 0.999998C195.224 1.27614 195 1.5 194.724 1.5V0.499998ZM199.589 1.5C199.312 1.5 199.089 1.27614 199.089 0.999998C199.089 0.723856 199.312 0.499998 199.589 0.499998V1.5ZM209.319 0.499998C209.595 0.499998 209.819 0.723856 209.819 0.999998C209.819 1.27614 209.595 1.5 209.319 1.5V0.499998ZM214.184 1.5C213.908 1.5 213.684 1.27614 213.684 0.999998C213.684 0.723856 213.908 0.499998 214.184 0.499998V1.5ZM223.914 0.499998C224.19 0.499998 224.414 0.723856 224.414 0.999998C224.414 1.27614 224.19 1.5 223.914 1.5V0.499998ZM228.779 1.5C228.503 1.5 228.279 1.27614 228.279 0.999998C228.279 0.723856 228.503 0.499998 228.779 0.499998V1.5ZM238.509 0.499998C238.785 0.499998 239.009 0.723856 239.009 0.999998C239.009 1.27614 238.785 1.5 238.509 1.5V0.499998ZM243.374 1.5C243.098 1.5 242.874 1.27614 242.874 0.999998C242.874 0.723856 243.098 0.499998 243.374 0.499998V1.5ZM253.104 0.499998C253.38 0.499998 253.604 0.723856 253.604 0.999998C253.604 1.27614 253.38 1.5 253.104 1.5V0.499998ZM257.969 1.5C257.693 1.5 257.469 1.27614 257.469 0.999998C257.469 0.723856 257.693 0.499998 257.969 0.499998V1.5ZM267.699 0.499998C267.975 0.499998 268.199 0.723856 268.199 0.999998C268.199 1.27614 267.975 1.5 267.699 1.5V0.499998ZM272.564 1.5C272.288 1.5 272.064 1.27614 272.064 0.999998C272.064 0.723856 272.288 0.499998 272.564 0.499998V1.5ZM282.294 0.499998C282.57 0.499998 282.794 0.723856 282.794 0.999998C282.794 1.27614 282.57 1.5 282.294 1.5V0.499998ZM287.159 1.5C286.883 1.5 286.659 1.27614 286.659 0.999998C286.659 0.723856 286.883 0.499998 287.159 0.499998V1.5ZM296.889 0.499998C297.166 0.499998 297.389 0.723856 297.389 0.999998C297.389 1.27614 297.166 1.5 296.889 1.5V0.499998ZM301.754 1.5C301.478 1.5 301.254 1.27614 301.254 0.999998C301.254 0.723856 301.478 0.499998 301.754 0.499998V1.5ZM311.485 0.499998C311.761 0.499998 311.985 0.723856 311.985 0.999998C311.985 1.27614 311.761 1.5 311.485 1.5V0.499998ZM316.35 1.5C316.073 1.5 315.85 1.27614 315.85 0.999998C315.85 0.723856 316.073 0.499998 316.35 0.499998V1.5ZM326.08 0.499998C326.356 0.499998 326.58 0.723856 326.58 0.999998C326.58 1.27614 326.356 1.5 326.08 1.5V0.499998ZM330.945 1.5C330.669 1.5 330.445 1.27614 330.445 0.999998C330.445 0.723856 330.669 0.499998 330.945 0.499998V1.5ZM340.675 0.499998C340.951 0.499998 341.175 0.723856 341.175 0.999998C341.175 1.27614 340.951 1.5 340.675 1.5V0.499998ZM345.54 1.5C345.264 1.5 345.04 1.27614 345.04 0.999998C345.04 0.723856 345.264 0.499998 345.54 0.499998V1.5ZM355.27 0.499998C355.546 0.499998 355.77 0.723856 355.77 0.999998C355.77 1.27614 355.546 1.5 355.27 1.5V0.499998ZM360.135 1.5C359.859 1.5 359.635 1.27614 359.635 0.999998C359.635 0.723856 359.859 0.499998 360.135 0.499998V1.5ZM0.5 30V25.1667H1.5V30H0.5ZM0.5 20.3333V10.6667H1.5V20.3333H0.5ZM0.5 5.83333V0.999998H1.5V5.83333H0.5ZM1 0.499998H5.84253V1.5H1V0.499998ZM10.6851 0.499998H20.3701V1.5H10.6851V0.499998ZM25.2126 0.499998H34.8977V1.5H25.2126V0.499998ZM39.7402 0.499998H49.4253V1.5H39.7402V0.499998ZM54.2678 0.499998H63.9528V1.5H54.2678V0.499998ZM68.7953 0.499998H78.4804V1.5H68.7953V0.499998ZM83.3229 0.499998H93.008V1.5H83.3229V0.499998ZM97.8505 0.499998H107.536V1.5H97.8505V0.499998ZM112.378 0.499998H122.063V1.5H112.378V0.499998ZM126.906 0.499998H136.591V1.5H126.906V0.499998ZM141.433 0.499998H151.118V1.5H141.433V0.499998ZM155.961 0.499998H165.646V1.5H155.961V0.499998ZM170.488 0.499998H180.173V1.5H170.488V0.499998ZM185.016 0.499998H189.858V1.5H185.016V0.499998ZM189.858 0.499998H194.724V1.5H189.858V0.499998ZM199.589 0.499998H209.319V1.5H199.589V0.499998ZM214.184 0.499998H223.914V1.5H214.184V0.499998ZM228.779 0.499998H238.509V1.5H228.779V0.499998ZM243.374 0.499998H253.104V1.5H243.374V0.499998ZM257.969 0.499998H267.699V1.5H257.969V0.499998ZM272.564 0.499998H282.294V1.5H272.564V0.499998ZM287.159 0.499998H296.889V1.5H287.159V0.499998ZM301.754 0.499998H311.485V1.5H301.754V0.499998ZM316.35 0.499998H326.08V1.5H316.35V0.499998ZM330.945 0.499998H340.675V1.5H330.945V0.499998ZM345.54 0.499998H355.27V1.5H345.54V0.499998ZM360.135 0.499998H365V1.5H360.135V0.499998Z" fill="#777777"/>
</svg>
