<svg width="24" height="24" viewBox="0 0 24 24" fill="none" xmlns="http://www.w3.org/2000/svg">
<path d="M22.7868 7.13097L11.0313 19.7177C10.7032 20.0686 10.2683 20.289 9.76971 20.355C9.7652 20.3557 9.75104 20.3565 9.7439 20.3576C9.63806 20.3699 9.63743 20.3888 9.47508 20.3888V20.4023H9.45657H9.43418C9.35983 20.4023 9.28026 20.3836 9.17685 20.3718C9.16873 20.3705 9.15994 20.3625 9.14987 20.3614C8.65359 20.2956 8.21865 20.0722 7.89171 19.7212L1.2144 12.57C0.831738 12.1608 0.631425 11.626 0.650405 11.0656C0.669385 10.5052 0.905306 9.98551 1.31472 9.60336C1.70581 9.23838 2.21526 9.03693 2.74906 9.03693C3.3371 9.03693 3.88192 9.27348 4.28326 9.7032L9.22441 14.9936C9.34716 15.1252 9.57622 15.1251 9.69896 14.9936L19.7181 4.26506C20.1197 3.83518 20.6652 3.59863 21.2537 3.59863C21.7874 3.59863 22.2959 3.79914 22.6857 4.16326C23.5316 4.95424 23.5771 6.28549 22.7868 7.13097Z" fill="white"/>
</svg>
