<svg width="272" height="70" viewBox="0 0 272 70" fill="none" xmlns="http://www.w3.org/2000/svg">
<g filter="url(#filter0_i_335_3227)">
<path d="M236.581 0H35.4186C26.025 0 17.0162 3.6875 10.3739 10.2513C3.73159 16.815 0 25.7174 0 35C0 44.2826 3.73159 53.185 10.3739 59.7487C17.0162 66.3125 26.025 70 35.4186 70H236.581C245.975 70 254.984 66.3125 261.626 59.7487C268.268 53.185 272 44.2826 272 35C272 25.7174 268.268 16.815 261.626 10.2513C254.984 3.6875 245.975 0 236.581 0Z" fill="#CDCDCD" fill-opacity="0.5"/>
</g>
<path d="M35.4186 0.5H236.581C245.844 0.5 254.727 4.13625 261.275 10.6069C267.823 17.0774 271.5 25.852 271.5 35C271.5 44.148 267.823 52.9226 261.275 59.3931C254.727 65.8638 245.844 69.5 236.581 69.5H35.4186C26.1557 69.5 17.2734 65.8638 10.7253 59.3931C4.17745 52.9226 0.5 44.148 0.5 35C0.5 25.852 4.17745 17.0774 10.7253 10.6069C17.2734 4.13625 26.1557 0.5 35.4186 0.5Z" stroke="url(#paint0_linear_335_3227)"/>
<defs>
<filter id="filter0_i_335_3227" x="0" y="0" width="272" height="74" filterUnits="userSpaceOnUse" color-interpolation-filters="sRGB">
<feFlood flood-opacity="0" result="BackgroundImageFix"/>
<feBlend mode="normal" in="SourceGraphic" in2="BackgroundImageFix" result="shape"/>
<feColorMatrix in="SourceAlpha" type="matrix" values="0 0 0 0 0 0 0 0 0 0 0 0 0 0 0 0 0 0 127 0" result="hardAlpha"/>
<feOffset dy="4"/>
<feGaussianBlur stdDeviation="2"/>
<feComposite in2="hardAlpha" operator="arithmetic" k2="-1" k3="1"/>
<feColorMatrix type="matrix" values="0 0 0 0 0 0 0 0 0 0 0 0 0 0 0 0 0 0 0.25 0"/>
<feBlend mode="normal" in2="shape" result="effect1_innerShadow_335_3227"/>
</filter>
<linearGradient id="paint0_linear_335_3227" x1="2.03491" y1="50.6896" x2="275.467" y2="49.3549" gradientUnits="userSpaceOnUse">
<stop offset="0.286458" stop-color="#333333"/>
<stop offset="1" stop-color="#999999"/>
</linearGradient>
</defs>
</svg>
