<svg width="231" height="60" viewBox="0 0 231 60" fill="none" xmlns="http://www.w3.org/2000/svg">
<g filter="url(#filter0_i_335_3217)">
<path d="M200.92 0H30.0798C22.1021 0 14.4512 3.16072 8.81016 8.7868C3.16911 14.4129 0 22.0435 0 30C0 37.9565 3.16911 45.5871 8.81016 51.2132C14.4512 56.8393 22.1021 60 30.0798 60H200.92C208.898 60 216.549 56.8393 222.19 51.2132C227.831 45.5871 231 37.9565 231 30C231 22.0435 227.831 14.4129 222.19 8.7868C216.549 3.16072 208.898 0 200.92 0Z" fill="#CDCDCD" fill-opacity="0.5"/>
</g>
<path d="M30.0798 0.5H200.92C208.766 0.5 216.29 3.60836 221.837 9.14082C227.384 14.6732 230.5 22.1766 230.5 30C230.5 37.8234 227.384 45.3268 221.837 50.8592C216.29 56.3916 208.766 59.5 200.92 59.5H30.0798C22.2343 59.5 14.7104 56.3916 9.16325 50.8592C3.61611 45.3268 0.5 37.8234 0.5 30C0.5 22.1766 3.61611 14.6732 9.16325 9.14082C14.7104 3.60836 22.2343 0.5 30.0798 0.5Z" stroke="url(#paint0_linear_335_3217)"/>
<defs>
<filter id="filter0_i_335_3217" x="0" y="0" width="231" height="64" filterUnits="userSpaceOnUse" color-interpolation-filters="sRGB">
<feFlood flood-opacity="0" result="BackgroundImageFix"/>
<feBlend mode="normal" in="SourceGraphic" in2="BackgroundImageFix" result="shape"/>
<feColorMatrix in="SourceAlpha" type="matrix" values="0 0 0 0 0 0 0 0 0 0 0 0 0 0 0 0 0 0 127 0" result="hardAlpha"/>
<feOffset dy="4"/>
<feGaussianBlur stdDeviation="2"/>
<feComposite in2="hardAlpha" operator="arithmetic" k2="-1" k3="1"/>
<feColorMatrix type="matrix" values="0 0 0 0 0 0 0 0 0 0 0 0 0 0 0 0 0 0 0.25 0"/>
<feBlend mode="normal" in2="shape" result="effect1_innerShadow_335_3217"/>
</filter>
<linearGradient id="paint0_linear_335_3217" x1="1.72818" y1="43.4482" x2="233.945" y2="42.3251" gradientUnits="userSpaceOnUse">
<stop offset="0.286458" stop-color="#333333"/>
<stop offset="1" stop-color="#999999"/>
</linearGradient>
</defs>
</svg>
