<svg width="50" height="50" viewBox="0 0 50 50" fill="none" xmlns="http://www.w3.org/2000/svg">
<path d="M6.98888 38.8027L7.15577 38.3104L6.84879 37.891C4.19321 34.2626 2.625 29.8058 2.625 24.9926C2.625 12.866 12.5704 2.98529 24.8115 2.98529C37.052 2.98529 46.9986 12.8672 46.9986 24.9939C46.9986 37.1204 37.0515 47 24.8121 47C20.3031 47 16.1073 45.6585 12.6042 43.3583L12.2062 43.097L11.7525 43.2412L4.72706 45.4741L6.98888 38.8027Z" stroke="black" stroke-width="2"/>
<path d="M37.3678 28.7283C37.2161 28.48 36.8156 28.33 36.2144 28.0317C35.6122 27.7333 32.6533 26.2883 32.1033 26.09C31.5517 25.8911 31.1494 25.7911 30.7489 26.3883C30.3483 26.9861 29.195 28.33 28.8433 28.7283C28.4922 29.1278 28.1417 29.1778 27.5394 28.8789C26.9383 28.5806 25 27.9494 22.7017 25.9161C20.9133 24.3339 19.7056 22.3806 19.3544 21.7822C19.0039 21.185 19.3178 20.8622 19.6183 20.565C19.8894 20.2972 20.2206 19.8678 20.5211 19.5194C20.8228 19.1706 20.9228 18.9222 21.1222 18.5233C21.3239 18.125 21.2233 17.7767 21.0722 17.4772C20.9222 17.1789 19.7178 14.2411 19.2167 13.0456C18.7156 11.8511 18.215 12.05 17.8633 12.05C17.5128 12.05 17.1111 12 16.71 12C16.3089 12 15.6567 12.1494 15.105 12.7467C14.5539 13.3444 13 14.7889 13 17.7261C13 20.6639 15.155 23.5022 15.4567 23.9C15.7572 24.2978 19.6178 30.5222 25.7344 32.9128C31.8517 35.3022 31.8517 34.505 32.955 34.405C34.0572 34.3056 36.5139 32.9611 37.0172 31.5678C37.5172 30.1722 37.5172 28.9772 37.3678 28.7283Z" stroke="black" stroke-width="2"/>
</svg>
