<svg width="50" height="50" viewBox="0 0 50 50" fill="none" xmlns="http://www.w3.org/2000/svg">
<path d="M6.99026 38.8027L7.15715 38.3105L6.85016 37.891C4.19458 34.2627 2.62637 29.8059 2.62637 24.9927C2.62637 12.866 12.5718 2.98535 24.8129 2.98535C37.0533 2.98535 47 12.8673 47 24.994C47 37.1205 37.0529 47.0001 24.8135 47.0001C20.3045 47.0001 16.1087 45.6586 12.6056 43.3584L12.2076 43.0971L11.7538 43.2413L4.72843 45.4742L6.99026 38.8027Z" stroke="#D9D9D9" stroke-width="2"/>
<path d="M37.3678 28.7283C37.2161 28.48 36.8156 28.33 36.2144 28.0317C35.6122 27.7333 32.6533 26.2883 32.1033 26.09C31.5517 25.8911 31.1494 25.7911 30.7489 26.3883C30.3483 26.9861 29.195 28.33 28.8433 28.7283C28.4922 29.1278 28.1417 29.1778 27.5394 28.8789C26.9383 28.5806 25 27.9494 22.7017 25.9161C20.9133 24.3339 19.7056 22.3806 19.3544 21.7822C19.0039 21.185 19.3178 20.8622 19.6183 20.565C19.8894 20.2972 20.2206 19.8678 20.5211 19.5194C20.8228 19.1706 20.9228 18.9222 21.1222 18.5233C21.3239 18.125 21.2233 17.7767 21.0722 17.4772C20.9222 17.1789 19.7178 14.2411 19.2167 13.0456C18.7156 11.8511 18.215 12.05 17.8633 12.05C17.5128 12.05 17.1111 12 16.71 12C16.3089 12 15.6567 12.1494 15.105 12.7467C14.5539 13.3444 13 14.7889 13 17.7261C13 20.6639 15.155 23.5022 15.4567 23.9C15.7572 24.2978 19.6178 30.5222 25.7344 32.9128C31.8517 35.3022 31.8517 34.505 32.955 34.405C34.0572 34.3056 36.5139 32.9611 37.0172 31.5678C37.5172 30.1722 37.5172 28.9772 37.3678 28.7283Z" stroke="#D9D9D9" stroke-width="2"/>
</svg>
