<svg width="110" height="110" viewBox="0 0 110 110" fill="none" xmlns="http://www.w3.org/2000/svg">
<path d="M11.1719 109.141H97.1094V28.3594V21.4844H76.4844V0.859375H69.6094H11.1719V48.9844H18.0469V7.73438H69.6094V28.3594H90.2344V102.266H11.1719V109.141Z" fill="#333333"/>
<path d="M21.0547 80.7812C26.4688 80.7812 30.9375 76.3125 30.9375 70.8984C30.9375 65.4844 26.4688 61.0156 21.0547 61.0156H11.1719V90.2344H18.0469V80.7812H21.0547ZM18.0469 67.8906H21.0547C22.6875 67.8906 24.0625 69.2656 24.0625 70.8984C24.0625 72.5312 22.6875 73.9062 21.0547 73.9062H18.0469V67.8906Z" fill="#333333"/>
<path d="M83.3594 67.8906V61.0156H66.1719V90.2344H73.0469V80.7812H78.2031V73.9062H73.0469V67.8906H83.3594Z" fill="#333333"/>
<path d="M59.2969 75.625C59.2969 67.5469 52.7656 61.0156 44.6875 61.0156H37.8125V90.2344H44.6875C52.7656 90.2344 59.2969 83.7031 59.2969 75.625ZM44.6875 83.3594V67.8906C48.9844 67.8906 52.4219 71.3281 52.4219 75.625C52.4219 79.9219 48.9844 83.3594 44.6875 83.3594Z" fill="#333333"/>
</svg>
