<svg width="50" height="50" viewBox="0 0 50 50" fill="none" xmlns="http://www.w3.org/2000/svg">
<g clip-path="url(#clip0_1768_11497)">
<path fill-rule="evenodd" clip-rule="evenodd" d="M25.8513 22.3888C22.8691 25.1332 19.9582 27.7308 19.9582 27.7308C19.5556 28.0896 19.5213 28.7069 19.8801 29.1095C20.2389 29.5112 20.8561 29.5464 21.2587 29.1876C21.2587 29.1876 28.8842 22.3811 32.1402 19.1251C32.6372 18.6289 32.7866 18.2486 32.8132 18.0907C32.881 17.6889 32.7402 17.4056 32.5376 17.1996C32.3891 17.0477 32.1685 16.9034 31.8303 16.8889C31.6646 16.882 31.2963 16.9464 30.8002 17.1799C27.9622 18.5147 16.6773 26.0328 16.6773 26.0328C16.2283 26.3316 16.1073 26.9385 16.406 27.3866C16.7056 27.8356 17.3125 27.9566 17.7606 27.6579C17.7606 27.6579 21.9609 24.8559 25.8513 22.3888Z" fill="black"/>
<path fill-rule="evenodd" clip-rule="evenodd" d="M25 2.14844C12.3875 2.14844 2.14844 12.3875 2.14844 25C2.14844 37.6125 12.3875 47.8516 25 47.8516C37.6125 47.8516 47.8516 37.6125 47.8516 25C47.8516 12.3875 37.6125 2.14844 25 2.14844ZM25 4.10156C36.5344 4.10156 45.8984 13.4656 45.8984 25C45.8984 36.5344 36.5344 45.8984 25 45.8984C13.4656 45.8984 4.10156 36.5344 4.10156 25C4.10156 13.4656 13.4656 4.10156 25 4.10156Z" fill="black"/>
<path fill-rule="evenodd" clip-rule="evenodd" d="M16.441 27.6184L18.5304 34.4154C18.5382 34.4403 18.5467 34.4652 18.5562 34.4893C18.7785 35.0472 19.0017 35.3717 19.1614 35.5254C19.4498 35.8035 19.746 35.8679 19.9915 35.861C20.3366 35.8507 20.8928 35.6447 21.1134 34.8266C21.1289 34.7665 21.1401 34.7056 21.1444 34.6438L21.4603 30.2932L29.714 36.3641C30.5622 37.0079 31.3245 37.1444 31.9022 36.9684C32.4979 36.7864 33.0748 36.2404 33.3478 35.0781C33.3495 35.0713 33.3512 35.0644 33.3521 35.0575L37.4262 15.8605C37.6691 14.8381 37.5326 14.0741 37.2004 13.6277C36.815 13.1083 36.0862 12.7555 34.8466 13.0903C34.8131 13.0989 34.7797 13.1101 34.7479 13.1229L10.8183 22.4034C10.7814 22.418 10.7453 22.4352 10.7101 22.4532C9.57615 23.0618 9.32378 23.758 9.32034 24.2087C9.31605 24.8156 9.74183 25.4028 10.4646 25.6929C10.4861 25.7015 10.5075 25.7101 10.5299 25.717L16.441 27.6184ZM35.59 14.9316C35.5806 15.0707 35.5617 15.2596 35.5239 15.4184C35.5213 15.427 35.5196 15.4355 35.5179 15.4441L31.4446 34.6386C31.4103 34.7803 31.3425 34.9425 31.297 35.0438C31.1888 34.9906 31.0163 34.9004 30.8918 34.8052C30.8867 34.8017 30.8824 34.7983 30.8772 34.7949L21.1924 27.6725C20.9066 27.4621 20.528 27.4235 20.2052 27.572C19.8825 27.7214 19.6661 28.0339 19.6404 28.3884L19.4644 30.8066L18.1579 26.5582C18.0643 26.2535 17.8274 26.0131 17.5235 25.9153L11.863 24.0937L35.3986 14.9651C35.4621 14.9505 35.5291 14.9394 35.59 14.9316Z" fill="black"/>
<path fill-rule="evenodd" clip-rule="evenodd" d="M20.6297 35.6181L24.8755 31.9517C25.2833 31.5998 25.3288 30.9825 24.9768 30.5748C24.624 30.167 24.0068 30.1215 23.599 30.4735L19.3541 34.1399C18.9455 34.4918 18.9009 35.109 19.2528 35.5168C19.6048 35.9254 20.222 35.97 20.6297 35.6181Z" fill="black"/>
</g>
<defs>
<clipPath id="clip0_1768_11497">
<rect width="50" height="50" fill="white"/>
</clipPath>
</defs>
</svg>
