<svg width="212" height="71" viewBox="0 0 212 71" fill="none" xmlns="http://www.w3.org/2000/svg">
<g clip-path="url(#clip0_1_2)">
<path d="M129.298 0.128887H128.558V9.20889H129.298V0.128887Z" fill="#D9D9D9"/>
<path d="M138.423 9.20889H137.682L132.572 1.44L132.532 1.44889V9.20889H131.792V0.128887H132.532L137.647 7.88444L137.682 7.87555V0.128887H138.423V9.20889Z" fill="#D9D9D9"/>
<path d="M146.847 0.768887H143.78V9.20889H143.044V0.768887H139.872V0.128887H146.847V0.768887Z" fill="#D9D9D9"/>
<path d="M153.072 4.81333H149.036V8.58222H153.702V9.21333H148.292V0.128887H153.671V0.768887H149.036V4.17778H153.072V4.81333Z" fill="#D9D9D9"/>
<path d="M156.015 8.58222H160.663V9.20889H155.275V0.128887H156.015V8.58222Z" fill="#D9D9D9"/>
<path d="M162.99 8.58222H167.638V9.20889H162.245V0.128887H162.99V8.58222Z" fill="#D9D9D9"/>
<path d="M170.154 0.128887H169.413V9.20889H170.154V0.128887Z" fill="#D9D9D9"/>
<path d="M179.045 7.98667C178.846 8.31556 178.481 8.62222 177.948 8.91111C177.414 9.19556 176.74 9.34222 175.93 9.34222C174.894 9.34222 174.048 8.98222 173.388 8.26222C172.727 7.54222 172.396 6.61333 172.396 5.46667V3.80445C172.396 2.68 172.718 1.76889 173.352 1.05778C173.991 0.351111 174.819 0 175.833 0C176.811 0 177.586 0.257778 178.163 0.777778C178.741 1.29778 179.014 1.96 179.001 2.76L178.983 2.79556H178.3C178.3 2.16889 178.084 1.64889 177.657 1.24C177.229 0.835556 176.621 0.631111 175.833 0.631111C175.026 0.631111 174.374 0.924445 173.881 1.51556C173.388 2.10667 173.141 2.86222 173.141 3.78667V5.46222C173.141 6.41333 173.396 7.18667 173.912 7.79556C174.427 8.40445 175.101 8.70667 175.93 8.70667C176.56 8.70667 177.075 8.61333 177.476 8.42222C177.877 8.23111 178.155 8.00889 178.309 7.75556V5.43111H175.886V4.79556H179.045V7.98667Z" fill="#D9D9D9"/>
<path d="M186.142 4.81333H182.107V8.58222H186.777V9.21333H181.362V0.128887H186.742V0.768887H182.107V4.17778H186.142V4.81333Z" fill="#D9D9D9"/>
<path d="M194.976 9.20889H194.236L189.121 1.44L189.086 1.44889V9.20889H188.345V0.128887H189.086L194.201 7.88444L194.236 7.87555V0.128887H194.976V9.20889Z" fill="#D9D9D9"/>
<path d="M203.4 0.768887H200.334V9.20889H199.598V0.768887H196.426V0.128887H203.4V0.768887Z" fill="#D9D9D9"/>
<path d="M134.167 22.3333C134.167 21.8667 133.982 21.48 133.616 21.1778C133.25 20.8756 132.629 20.5911 131.752 20.3244C130.787 20.0578 130.06 19.7289 129.558 19.3289C129.06 18.9333 128.805 18.3911 128.805 17.7111C128.805 17.0133 129.087 16.4444 129.646 16C130.206 15.5511 130.924 15.3289 131.792 15.3289C132.708 15.3289 133.444 15.5822 133.999 16.0889C134.554 16.5911 134.827 17.2356 134.81 18.0133L134.797 18.0489H134.105C134.105 17.4489 133.889 16.9511 133.457 16.56C133.025 16.1644 132.47 15.9689 131.792 15.9689C131.091 15.9689 130.541 16.1378 130.144 16.4711C129.748 16.8089 129.549 17.2178 129.549 17.7022C129.549 18.1644 129.73 18.5422 130.091 18.84C130.452 19.1378 131.091 19.4133 131.999 19.6756C132.951 19.9556 133.673 20.2978 134.171 20.7022C134.669 21.1111 134.92 21.6489 134.92 22.3244C134.92 23.0311 134.629 23.6 134.043 24.0311C133.462 24.4622 132.726 24.6756 131.84 24.6756C130.955 24.6756 130.184 24.4489 129.523 23.9911C128.862 23.5378 128.545 22.8711 128.567 22L128.58 21.9644H129.267C129.267 22.6667 129.527 23.1911 130.052 23.5333C130.576 23.8756 131.171 24.0489 131.845 24.0489C132.532 24.0489 133.096 23.8889 133.528 23.5733C133.951 23.2444 134.167 22.8356 134.167 22.3333Z" fill="#D9D9D9"/>
<path d="M141.511 20.1422H137.475V23.9067H142.141V24.5378H136.731V15.4578H142.11V16.0933H137.475V19.5067H141.511V20.1422Z" fill="#D9D9D9"/>
<path d="M144.437 20.4356V24.5378H143.696V15.4622H146.697C147.662 15.4622 148.398 15.6756 148.917 16.1022C149.433 16.5289 149.688 17.1511 149.688 17.9689C149.688 18.4533 149.552 18.8844 149.279 19.2622C149.006 19.6444 148.618 19.92 148.116 20.0978C148.671 20.24 149.072 20.4889 149.318 20.8578C149.565 21.2222 149.684 21.6756 149.684 22.2267V23.08C149.684 23.3644 149.719 23.6178 149.785 23.84C149.851 24.0622 149.957 24.2489 150.111 24.3867V24.5378H149.358C149.208 24.3867 149.098 24.1778 149.036 23.9067C148.975 23.6356 148.944 23.3556 148.944 23.0667V22.2356C148.944 21.68 148.768 21.24 148.411 20.9156C148.054 20.5911 147.556 20.4311 146.917 20.4311H144.437V20.4356ZM144.437 19.8H146.609C147.419 19.8 148.014 19.6356 148.389 19.3022C148.763 18.9733 148.948 18.5244 148.948 17.9644C148.948 17.3689 148.763 16.9067 148.389 16.5822C148.014 16.2578 147.45 16.0978 146.692 16.0978H144.432V19.8H144.437Z" fill="#D9D9D9"/>
<path d="M154.389 22.9467L154.57 23.5822H154.605L154.786 22.9467L157.491 15.4578H158.293L154.94 24.5378H154.235L150.887 15.4578H151.689L154.389 22.9467Z" fill="#D9D9D9"/>
<path d="M160.553 15.4578H159.813V24.5378H160.553V15.4578Z" fill="#D9D9D9"/>
<path d="M169.246 21.7022L169.259 21.7378C169.277 22.6267 168.986 23.3378 168.396 23.8711C167.801 24.4044 167.021 24.6667 166.056 24.6667C165.056 24.6667 164.245 24.3022 163.633 23.5733C163.016 22.8444 162.712 21.8978 162.712 20.7378V19.2578C162.712 18.1022 163.016 17.1556 163.633 16.4222C164.245 15.6889 165.056 15.32 166.056 15.32C167.03 15.32 167.814 15.5822 168.4 16.0978C168.99 16.6178 169.277 17.3333 169.259 18.2444L169.246 18.28H168.554C168.554 17.5467 168.334 16.9778 167.889 16.5689C167.444 16.16 166.836 15.9511 166.056 15.9511C165.268 15.9511 164.637 16.2578 164.162 16.8756C163.686 17.4933 163.448 18.28 163.448 19.24V20.7333C163.448 21.7067 163.686 22.4978 164.162 23.1111C164.637 23.7244 165.272 24.0311 166.056 24.0311C166.836 24.0311 167.444 23.8311 167.889 23.4311C168.334 23.0311 168.554 22.4533 168.554 21.6933H169.246V21.7022Z" fill="#D9D9D9"/>
<path d="M175.943 20.1422H171.907V23.9067H176.573V24.5378H171.163V15.4578H176.542V16.0933H171.907V19.5067H175.943V20.1422Z" fill="#D9D9D9"/>
<path d="M135.532 31.4222H132.466V39.8667H131.73V31.4222H128.558V30.7867H135.532V31.4222Z" fill="#D9D9D9"/>
<path d="M141.758 35.4711H137.722V39.2356H142.388V39.8667H136.978V30.7867H142.357V31.4222H137.722V34.8356H141.758V35.4711Z" fill="#D9D9D9"/>
<path d="M150.16 37.0311L150.173 37.0667C150.191 37.9556 149.9 38.6667 149.31 39.2C148.715 39.7333 147.939 39.9956 146.97 39.9956C145.97 39.9956 145.164 39.6311 144.547 38.9022C143.934 38.1733 143.626 37.2267 143.626 36.0711V34.5911C143.626 33.4356 143.934 32.4889 144.547 31.7556C145.164 31.0222 145.97 30.6533 146.97 30.6533C147.948 30.6533 148.728 30.9156 149.314 31.4311C149.904 31.9511 150.191 32.6667 150.173 33.5778L150.16 33.6133H149.468C149.468 32.88 149.248 32.3111 148.803 31.9022C148.358 31.4933 147.75 31.2889 146.97 31.2889C146.186 31.2889 145.551 31.5956 145.075 32.2133C144.6 32.8311 144.362 33.6178 144.362 34.5778V36.0711C144.362 37.0444 144.6 37.8356 145.075 38.4489C145.551 39.0622 146.186 39.3689 146.97 39.3689C147.75 39.3689 148.362 39.1689 148.803 38.7689C149.248 38.3689 149.468 37.7911 149.468 37.0311H150.16Z" fill="#D9D9D9"/>
<path d="M158.672 39.8667H157.932V35.6889H152.817V39.8667H152.076V30.7867H152.817V35.0533H157.932V30.7867H158.672V39.8667Z" fill="#D9D9D9"/>
<path d="M167.607 39.8667H166.862L161.752 32.0978L161.716 32.1022V39.8667H160.972V30.7867H161.716L166.827 38.5378L166.862 38.5333V30.7867H167.607V39.8667Z" fill="#D9D9D9"/>
<path d="M176.507 36.0667C176.507 37.2356 176.19 38.1867 175.551 38.9111C174.916 39.6356 174.062 39.9956 172.991 39.9956C171.934 39.9956 171.092 39.6356 170.466 38.9111C169.836 38.1867 169.524 37.24 169.524 36.0667V34.5867C169.524 33.4178 169.836 32.4711 170.466 31.7422C171.092 31.0133 171.934 30.6489 172.987 30.6489C174.057 30.6489 174.912 31.0133 175.551 31.7422C176.19 32.4711 176.507 33.4178 176.507 34.5867V36.0667ZM175.775 34.5778C175.775 33.5956 175.529 32.8044 175.035 32.2044C174.542 31.6089 173.859 31.3067 172.987 31.3067C172.127 31.3067 171.462 31.6044 170.982 32.2044C170.506 32.8044 170.264 33.5911 170.264 34.5778V36.0667C170.264 37.0578 170.506 37.8489 170.986 38.4489C171.467 39.0444 172.136 39.3467 172.991 39.3467C173.868 39.3467 174.551 39.0489 175.04 38.4533C175.529 37.8578 175.775 37.0622 175.775 36.0667V34.5778Z" fill="#D9D9D9"/>
<path d="M179.168 39.2356H183.816V39.8667H178.428V30.7867H179.168V39.2356Z" fill="#D9D9D9"/>
<path d="M192.002 36.0667C192.002 37.2356 191.685 38.1867 191.046 38.9111C190.412 39.6356 189.557 39.9956 188.486 39.9956C187.429 39.9956 186.587 39.6356 185.962 38.9111C185.332 38.1867 185.019 37.24 185.019 36.0667V34.5867C185.019 33.4178 185.332 32.4711 185.962 31.7422C186.587 31.0133 187.429 30.6489 188.486 30.6489C189.557 30.6489 190.412 31.0133 191.051 31.7422C191.689 32.4711 192.007 33.4178 192.007 34.5867V36.0667H192.002ZM191.271 34.5778C191.271 33.5956 191.024 32.8044 190.531 32.2044C190.037 31.6089 189.354 31.3067 188.482 31.3067C187.623 31.3067 186.958 31.6044 186.477 32.2044C185.997 32.8044 185.759 33.5911 185.759 34.5778V36.0667C185.759 37.0578 186.001 37.8489 186.482 38.4489C186.962 39.0444 187.632 39.3467 188.486 39.3467C189.363 39.3467 190.046 39.0489 190.535 38.4533C191.024 37.8578 191.271 37.0622 191.271 36.0667V34.5778Z" fill="#D9D9D9"/>
<path d="M200.32 38.6444C200.122 38.9733 199.757 39.28 199.223 39.5689C198.69 39.8533 198.016 40 197.206 40C196.17 40 195.324 39.64 194.663 38.92C194.002 38.2 193.672 37.2711 193.672 36.1244V34.4622C193.672 33.3378 193.994 32.4267 194.633 31.7156C195.271 31.0089 196.095 30.6578 197.113 30.6578C198.091 30.6578 198.867 30.92 199.439 31.4356C200.016 31.9556 200.294 32.6178 200.276 33.4178L200.259 33.4533H199.58C199.58 32.8267 199.364 32.3067 198.937 31.8978C198.51 31.4933 197.902 31.2889 197.113 31.2889C196.307 31.2889 195.655 31.5822 195.157 32.1733C194.663 32.7644 194.417 33.52 194.417 34.4444V36.12C194.417 37.0711 194.677 37.8444 195.192 38.4533C195.708 39.0622 196.377 39.3644 197.206 39.3644C197.836 39.3644 198.351 39.2711 198.752 39.08C199.153 38.8889 199.431 38.6667 199.589 38.4133V36.0889H197.166V35.4533H200.325V38.6444H200.32Z" fill="#D9D9D9"/>
<path d="M205.352 35.8311L208.141 30.7867H209L205.718 36.5467V39.8667H204.982V36.5156L201.722 30.7867H202.581L205.352 35.8311Z" fill="#D9D9D9"/>
<path d="M10.4767 0.395557H3V39.6089H10.4767V0.395557Z" fill="#D9D9D9"/>
<path d="M100.717 0.395557H90.6016H83.1248H73.0046V7.93778H83.1248V39.6044H90.6016V7.93778H100.717V0.395557Z" fill="#D9D9D9"/>
<path d="M51.1251 29.0667C51.1251 27.56 50.755 26.3822 50.006 25.5422C49.2614 24.6978 47.8692 23.8489 45.8337 22.9956C41.983 21.6533 39.1104 20.1022 37.2114 18.3378C35.3125 16.5778 34.3653 14.1156 34.3653 10.9556C34.3653 7.81778 35.4359 5.27111 37.5771 3.32C39.7184 1.36889 42.5337 0.391109 46.0275 0.391109C49.7549 0.391109 52.698 1.43111 54.8569 3.51111C57.0157 5.59111 58.0599 8.4 57.9894 11.9422L57.9322 12.1022H50.6978C50.6978 10.1067 50.3056 8.60444 49.5258 7.59555C48.7416 6.58667 47.5432 6.08444 45.9218 6.08444C44.5207 6.08444 43.4898 6.53778 42.8333 7.44889C42.1724 8.35555 41.8464 9.53778 41.8464 10.9867C41.8464 12.3333 42.2429 13.4222 43.036 14.2533C43.829 15.0889 45.2786 15.9778 47.3801 16.92C51.1031 18.1556 53.9008 19.6844 55.7601 21.5067C57.6237 23.3289 58.5534 25.8311 58.5534 29.0089C58.5534 32.2978 57.4607 34.88 55.2754 36.7689C53.0901 38.6578 50.1514 39.6 46.4637 39.6C42.8289 39.6 39.7404 38.5956 37.207 36.5911C34.6693 34.5867 33.4444 31.52 33.537 27.4L33.5898 27.2356H40.8242C40.8242 29.6133 41.2913 31.3244 42.2297 32.3689C43.1637 33.4133 44.578 33.9333 46.4681 33.9333C48.0675 33.9333 49.2482 33.4889 50.006 32.6C50.7506 31.72 51.1251 30.5378 51.1251 29.0667Z" fill="#D9D9D9"/>
<path d="M115.107 0.395557H114.279V39.6089H115.107V0.395557Z" fill="#D9D9D9"/>
</g>
<path d="M7.7 63L3.872 57.984H3.828V63H1.606V52.528H3.828V56.994L7.458 52.528H9.988L5.918 57.28L10.538 63H7.7ZM16.1133 52.286C19.1273 52.286 20.7553 54.2 20.7553 57.764C20.7553 61.35 19.1493 63.242 16.1133 63.242C13.0773 63.242 11.4933 61.35 11.4933 57.764C11.4933 54.178 13.0993 52.286 16.1133 52.286ZM16.1133 53.21C14.6173 53.21 13.9133 54.662 13.9133 57.764C13.9133 60.888 14.6173 62.318 16.1133 62.318C17.6313 62.318 18.3353 60.866 18.3353 57.742C18.3353 54.662 17.6093 53.21 16.1133 53.21ZM30.3248 67.708H28.1688V62.494C27.6628 63.044 27.1568 63.242 26.3208 63.242C23.8788 63.242 22.5148 61.284 22.5148 57.764C22.5148 54.288 23.8788 52.286 26.2768 52.286C27.0688 52.286 27.6848 52.528 28.1688 53.034V47.82H30.3248V53.034C30.8088 52.528 31.4248 52.286 32.2168 52.286C34.6148 52.286 35.9788 54.288 35.9788 57.764C35.9788 61.284 34.6148 63.242 32.1728 63.242C31.3368 63.242 30.8528 63.044 30.3248 62.494V67.708ZM26.4968 53.21C25.3968 53.21 24.8688 54.684 24.8688 57.764C24.8688 60.888 25.3968 62.318 26.5188 62.318C27.6188 62.318 28.1688 60.844 28.1688 57.896C28.1688 54.662 27.6408 53.21 26.4968 53.21ZM31.9968 53.21C30.8528 53.21 30.3248 54.662 30.3248 57.896C30.3248 60.844 30.8748 62.318 31.9748 62.318C33.0968 62.318 33.6248 60.888 33.6248 57.764C33.6248 54.684 33.0968 53.21 31.9968 53.21ZM46.1957 56.576H39.9257C39.9477 59.854 41.5977 62.076 43.9957 62.076C44.6997 62.076 45.2937 61.944 45.9977 61.636V62.648C44.8977 63.088 44.1497 63.242 42.9837 63.242C39.6177 63.242 37.7037 61.108 37.7037 57.324C37.7037 54.002 39.2217 52.286 42.1697 52.286C44.8537 52.286 46.1737 53.694 46.1957 56.576ZM39.9917 55.564H44.0177C44.0177 54.09 43.2917 53.21 42.0817 53.21C40.9157 53.21 40.1017 54.112 39.9917 55.564ZM53.9373 60.954L56.5993 52.528H59.1513V63H56.9293V55.19L54.4433 63H53.0573L50.5713 55.19V63H48.6573V52.528H51.3193L53.9373 60.954ZM67.5988 63V61.548H67.5548C66.8728 62.648 65.8608 63.242 64.6068 63.242C62.9788 63.242 61.7468 62.12 61.7468 60.602C61.7468 58.446 63.5728 57.368 67.5988 57.17V56.246C67.5988 55.256 67.5548 54.794 67.4228 54.332C67.2248 53.584 66.7628 53.21 66.1028 53.21C65.0028 53.21 64.5188 53.87 64.4308 55.498H62.0988C62.2748 53.276 63.5068 52.286 66.1248 52.286C68.8088 52.286 69.8208 53.364 69.8208 56.246V63H67.5988ZM67.5988 59.326V58.094C65.2668 58.248 64.1668 58.952 64.1668 60.272C64.1668 61.218 64.6728 61.856 65.4428 61.856C66.6088 61.856 67.5988 60.69 67.5988 59.326ZM83.4041 61.68V52.528H85.6261V63H73.0421V52.528H75.2641V61.68H78.2121V52.528H80.4341V61.68H83.4041ZM95.08 52.528H97.456V63H95.234V55.014L91.252 63H88.876V52.528H91.098V60.514L95.08 52.528ZM107.072 58.204H102.936V63H100.714V52.528H102.936V56.884H107.072V52.528H109.294V63H107.072V58.204ZM114.774 58.204V61.68H115.302H115.896C117.128 61.68 117.832 61.042 117.832 59.942C117.832 58.644 117.172 58.204 115.302 58.204H114.774ZM112.552 52.528H114.774V56.884H116.204C117.612 56.884 118.382 57.038 119.042 57.434C119.834 57.918 120.252 58.776 120.252 59.876C120.252 61.152 119.724 62.12 118.756 62.582C118.118 62.89 117.414 63 116.204 63H112.552V52.528ZM121.022 52.528H123.244V63H121.022V52.528ZM138.822 52.528H141.198V63H138.976V55.014L134.994 63H132.618V52.528H134.84V60.514L138.822 52.528ZM158.015 55.938H155.683C155.705 54.024 155.243 53.21 154.187 53.21C152.977 53.21 152.229 54.53 152.229 56.62C152.229 59.832 153.769 62.076 155.991 62.076C156.607 62.076 157.157 61.966 157.861 61.68V62.714C156.849 63.088 155.991 63.242 155.045 63.242C151.679 63.242 149.809 61.13 149.809 57.368C149.809 54.09 151.371 52.286 154.231 52.286C156.783 52.286 157.971 53.43 158.015 55.938ZM167.668 56.576H161.398C161.42 59.854 163.07 62.076 165.468 62.076C166.172 62.076 166.766 61.944 167.47 61.636V62.648C166.37 63.088 165.622 63.242 164.456 63.242C161.09 63.242 159.176 61.108 159.176 57.324C159.176 54.002 160.694 52.286 163.642 52.286C166.326 52.286 167.646 53.694 167.668 56.576ZM161.464 55.564H165.49C165.49 54.09 164.764 53.21 163.554 53.21C162.388 53.21 161.574 54.112 161.464 55.564ZM172.396 61.548H172.352V67.708H170.13V52.528H172.352V54.244H172.396C173.012 52.902 173.892 52.286 175.168 52.286C176.708 52.286 177.852 53.012 178.468 54.376C178.886 55.3 179.062 56.334 179.062 58.006C179.062 61.262 177.588 63.242 175.146 63.242C173.826 63.242 173.056 62.758 172.396 61.548ZM176.642 57.764V57.676C176.642 55.124 175.894 53.694 174.53 53.694C173.166 53.694 172.44 55.102 172.44 57.764C172.44 60.668 173.078 61.966 174.508 61.966C175.894 61.966 176.642 60.47 176.642 57.764ZM181.538 52.528H185.168C187.632 52.528 188.886 53.386 188.886 55.058C188.886 56.224 188.248 57.038 187.038 57.412V57.434C188.534 57.786 189.392 58.754 189.392 60.096C189.392 61.284 188.864 62.142 187.852 62.604C187.236 62.868 186.422 63 185.168 63H181.538V52.528ZM183.76 53.848V56.884H184.42C185.784 56.884 186.466 56.356 186.466 55.344C186.466 54.31 185.828 53.848 184.42 53.848H183.76ZM183.76 58.204V61.68H184.42C186.18 61.68 186.972 61.152 186.972 59.986C186.972 58.776 186.136 58.204 184.42 58.204H183.76ZM197.947 52.528H200.323V63H198.101V55.014L194.119 63H191.743V52.528H193.965V60.514L197.947 52.528ZM211.017 55.938H208.685C208.707 54.024 208.245 53.21 207.189 53.21C205.979 53.21 205.231 54.53 205.231 56.62C205.231 59.832 206.771 62.076 208.993 62.076C209.609 62.076 210.159 61.966 210.863 61.68V62.714C209.851 63.088 208.993 63.242 208.047 63.242C204.681 63.242 202.811 61.13 202.811 57.368C202.811 54.09 204.373 52.286 207.233 52.286C209.785 52.286 210.973 53.43 211.017 55.938Z" fill="#D9D9D9"/>
<defs>
<clipPath id="clip0_1_2">
<rect width="206" height="40" fill="white" transform="translate(3)"/>
</clipPath>
</defs>
</svg>
