<svg width="70" height="115" viewBox="0 0 70 115" fill="none" xmlns="http://www.w3.org/2000/svg">
<path d="M0 0.108762H12.9788L27.1902 23.9637L37.9938 5.65557L48.7249 23.9637L62.5376 0H69.2807L45.3533 41.1479L34.7673 22.8761L23.9274 40.8941L0 0.108762Z" fill="#D9D9D9"/>
<path d="M4.45863 36.2177H14.6822L23.9268 52.4593L34.5129 34.1874L42.4525 47.7826V81.8973H30.7788V52.2055L20.5553 69.5348L10.1142 51.988L10.1505 81.9335H4.45863V36.2177Z" fill="#D9D9D9"/>
<path d="M54.8525 36.2175H67.8313V47.8549H59.8192V55.6495H66.7074V61.2688H59.8192V81.8609H48.218V47.5287L54.8525 36.2175Z" fill="#D9D9D9"/>
<path d="M10.349 96.432H6.025V106H3.702V95.052H12.672V106H10.349V96.432ZM20.126 94.799C23.277 94.799 24.979 96.8 24.979 100.526C24.979 104.275 23.3 106.253 20.126 106.253C16.952 106.253 15.296 104.275 15.296 100.526C15.296 96.777 16.975 94.799 20.126 94.799ZM20.126 95.765C18.562 95.765 17.826 97.283 17.826 100.526C17.826 103.792 18.562 105.287 20.126 105.287C21.713 105.287 22.449 103.769 22.449 100.503C22.449 97.283 21.69 95.765 20.126 95.765ZM35.3744 98.617H32.9364C32.9594 96.616 32.4764 95.765 31.3724 95.765C30.1074 95.765 29.3254 97.145 29.3254 99.33C29.3254 102.688 30.9354 105.034 33.2584 105.034C33.9024 105.034 34.4774 104.919 35.2134 104.62V105.701C34.1554 106.092 33.2584 106.253 32.2694 106.253C28.7504 106.253 26.7954 104.045 26.7954 100.112C26.7954 96.685 28.4284 94.799 31.4184 94.799C34.0864 94.799 35.3284 95.995 35.3744 98.617ZM45.8574 95.052L41.8784 106.276L41.3034 107.886C40.4294 110.278 39.4634 111.175 37.8074 111.175C37.4164 111.175 37.2094 111.152 36.6804 111.083V109.588C37.0714 109.749 37.2554 109.795 37.6004 109.795C38.5204 109.795 39.0034 109.266 39.5554 107.564L40.0154 106.184L35.7604 95.052H38.1754L41.0504 102.872H41.0964L43.6954 95.052H45.8574ZM48.5326 95.052H56.1456V104.62H57.5256V108.3H55.2026V106H48.4176V108.3H46.0946V104.62H46.6006C47.4056 104.62 47.8196 103.976 47.9346 102.527L48.5326 95.052ZM49.5216 104.62H53.8226V96.432H50.6486L50.1656 102.504C50.0736 103.493 49.8896 104.137 49.5216 104.62ZM64.9449 106V104.482H64.8989C64.1859 105.632 63.1279 106.253 61.8169 106.253C60.1149 106.253 58.8269 105.08 58.8269 103.493C58.8269 101.239 60.7359 100.112 64.9449 99.905V98.939C64.9449 97.904 64.8989 97.421 64.7609 96.938C64.5539 96.156 64.0709 95.765 63.3809 95.765C62.2309 95.765 61.7249 96.455 61.6329 98.157H59.1949C59.3789 95.834 60.6669 94.799 63.4039 94.799C66.2099 94.799 67.2679 95.926 67.2679 98.939V106H64.9449ZM64.9449 102.159V100.871C62.5069 101.032 61.3569 101.768 61.3569 103.148C61.3569 104.137 61.8859 104.804 62.6909 104.804C63.9099 104.804 64.9449 103.585 64.9449 102.159Z" fill="#D9D9D9"/>
</svg>
