<svg width="120" height="98" viewBox="0 0 120 98" fill="none" xmlns="http://www.w3.org/2000/svg">
<path d="M7.47673 0.395508H0V39.6088H7.47673V0.395508Z" fill="#D9D9D9"/>
<path d="M97.7177 0.395508H87.6019H80.1251H70.0049V7.93773H80.1251V39.6044H87.6019V7.93773H97.7177V0.395508Z" fill="#D9D9D9"/>
<path d="M48.1253 29.0662C48.1253 27.5595 47.7552 26.3817 47.0062 25.5417C46.2616 24.6973 44.8693 23.8484 42.8338 22.9951C38.9831 21.6528 36.1105 20.1017 34.2116 18.3373C32.3127 16.5773 31.3654 14.1151 31.3654 10.9551C31.3654 7.81729 32.436 5.27062 34.5773 3.31951C36.7185 1.3684 39.5339 0.390625 43.0277 0.390625C46.755 0.390625 49.6982 1.43063 51.857 3.51063C54.0159 5.59062 55.0601 8.39952 54.9896 11.9417L54.9323 12.1017H47.6979C47.6979 10.1062 47.3058 8.60396 46.5259 7.59507C45.7417 6.58618 44.5433 6.08396 42.922 6.08396C41.5209 6.08396 40.4899 6.53729 39.8335 7.4484C39.1726 8.35507 38.8465 9.53729 38.8465 10.9862C38.8465 12.3328 39.2431 13.4217 40.0361 14.2528C40.8292 15.0884 42.2787 15.9773 44.3803 16.9195C48.1032 18.1551 50.9009 19.684 52.7602 21.5062C54.6239 23.3284 55.5535 25.8306 55.5535 29.0084C55.5535 32.2973 54.4609 34.8795 52.2756 36.7684C50.0903 38.6573 47.1516 39.5995 43.4639 39.5995C39.829 39.5995 36.7405 38.5951 34.2072 36.5906C31.6694 34.5862 30.4446 31.5195 30.5371 27.3995L30.59 27.2351H37.8244C37.8244 29.6128 38.2914 31.324 39.2298 32.3684C40.1639 33.4128 41.5782 33.9328 43.4683 33.9328C45.0676 33.9328 46.2484 33.4884 47.0062 32.5995C47.7508 31.7195 48.1253 30.5373 48.1253 29.0662Z" fill="#D9D9D9"/>
<path d="M0 50L0 51L98 51V50L0 50Z" fill="#D9D9D9"/>
<path d="M7 75L3.52 70.44H3.48V75H1.46V65.48H3.48V69.54L6.78 65.48H9.08L5.38 69.8L9.58 75H7ZM14.6484 65.26C17.3884 65.26 18.8684 67 18.8684 70.24C18.8684 73.5 17.4084 75.22 14.6484 75.22C11.8884 75.22 10.4484 73.5 10.4484 70.24C10.4484 66.98 11.9084 65.26 14.6484 65.26ZM14.6484 66.1C13.2884 66.1 12.6484 67.42 12.6484 70.24C12.6484 73.08 13.2884 74.38 14.6484 74.38C16.0284 74.38 16.6684 73.06 16.6684 70.22C16.6684 67.42 16.0084 66.1 14.6484 66.1ZM27.568 79.28H25.608V74.54C25.148 75.04 24.688 75.22 23.928 75.22C21.708 75.22 20.468 73.44 20.468 70.24C20.468 67.08 21.708 65.26 23.888 65.26C24.608 65.26 25.168 65.48 25.608 65.94V61.2H27.568V65.94C28.008 65.48 28.568 65.26 29.288 65.26C31.468 65.26 32.708 67.08 32.708 70.24C32.708 73.44 31.468 75.22 29.248 75.22C28.488 75.22 28.048 75.04 27.568 74.54V79.28ZM24.088 66.1C23.088 66.1 22.608 67.44 22.608 70.24C22.608 73.08 23.088 74.38 24.108 74.38C25.108 74.38 25.608 73.04 25.608 70.36C25.608 67.42 25.128 66.1 24.088 66.1ZM29.088 66.1C28.048 66.1 27.568 67.42 27.568 70.36C27.568 73.04 28.068 74.38 29.068 74.38C30.088 74.38 30.568 73.08 30.568 70.24C30.568 67.44 30.088 66.1 29.088 66.1ZM41.9961 69.16H36.2961C36.3161 72.14 37.8161 74.16 39.9961 74.16C40.6361 74.16 41.1761 74.04 41.8161 73.76V74.68C40.8161 75.08 40.1361 75.22 39.0761 75.22C36.0161 75.22 34.2761 73.28 34.2761 69.84C34.2761 66.82 35.6561 65.26 38.3361 65.26C40.7761 65.26 41.9761 66.54 41.9961 69.16ZM36.3561 68.24H40.0161C40.0161 66.9 39.3561 66.1 38.2561 66.1C37.1961 66.1 36.4561 66.92 36.3561 68.24ZM49.0339 73.14L51.4539 65.48H53.7739V75H51.7539V67.9L49.4939 75H48.2339L45.9739 67.9V75H44.2339V65.48H46.6539L49.0339 73.14ZM61.4534 75V73.68H61.4134C60.7934 74.68 59.8734 75.22 58.7334 75.22C57.2534 75.22 56.1334 74.2 56.1334 72.82C56.1334 70.86 57.7934 69.88 61.4534 69.7V68.86C61.4534 67.96 61.4134 67.54 61.2934 67.12C61.1134 66.44 60.6934 66.1 60.0934 66.1C59.0934 66.1 58.6534 66.7 58.5734 68.18H56.4534C56.6134 66.16 57.7334 65.26 60.1134 65.26C62.5534 65.26 63.4734 66.24 63.4734 68.86V75H61.4534ZM61.4534 71.66V70.54C59.3334 70.68 58.3334 71.32 58.3334 72.52C58.3334 73.38 58.7934 73.96 59.4934 73.96C60.5534 73.96 61.4534 72.9 61.4534 71.66ZM75.8219 73.8V65.48H77.8419V75H66.4019V65.48H68.4219V73.8H71.1019V65.48H73.1219V73.8H75.8219ZM86.4364 65.48H88.5964V75H86.5764V67.74L82.9564 75H80.7964V65.48H82.8164V72.74L86.4364 65.48ZM97.3381 70.64H93.5781V75H91.5581V65.48H93.5781V69.44H97.3381V65.48H99.3581V75H97.3381V70.64ZM104.34 70.64V73.8H104.82H105.36C106.48 73.8 107.12 73.22 107.12 72.22C107.12 71.04 106.52 70.64 104.82 70.64H104.34ZM102.32 65.48H104.34V69.44H105.64C106.92 69.44 107.62 69.58 108.22 69.94C108.94 70.38 109.32 71.16 109.32 72.16C109.32 73.32 108.84 74.2 107.96 74.62C107.38 74.9 106.74 75 105.64 75H102.32V65.48ZM110.02 65.48H112.04V75H110.02V65.48ZM7.12 83.48H9.28V93H7.26V85.74L3.64 93H1.48V83.48H3.5V90.74L7.12 83.48ZM24.5681 86.58H22.4481C22.4681 84.84 22.0481 84.1 21.0881 84.1C19.9881 84.1 19.3081 85.3 19.3081 87.2C19.3081 90.12 20.7081 92.16 22.7281 92.16C23.2881 92.16 23.7881 92.06 24.4281 91.8V92.74C23.5081 93.08 22.7281 93.22 21.8681 93.22C18.8081 93.22 17.1081 91.3 17.1081 87.88C17.1081 84.9 18.5281 83.26 21.1281 83.26C23.4481 83.26 24.5281 84.3 24.5681 86.58ZM33.3438 87.16H27.6438C27.6638 90.14 29.1638 92.16 31.3438 92.16C31.9838 92.16 32.5238 92.04 33.1638 91.76V92.68C32.1638 93.08 31.4838 93.22 30.4238 93.22C27.3638 93.22 25.6238 91.28 25.6238 87.84C25.6238 84.82 27.0038 83.26 29.6838 83.26C32.1238 83.26 33.3238 84.54 33.3438 87.16ZM27.7038 86.24H31.3638C31.3638 84.9 30.7038 84.1 29.6038 84.1C28.5438 84.1 27.8038 84.92 27.7038 86.24ZM37.6416 91.68H37.6016V97.28H35.5816V83.48H37.6016V85.04H37.6416C38.2016 83.82 39.0016 83.26 40.1616 83.26C41.5616 83.26 42.6016 83.92 43.1616 85.16C43.5416 86 43.7016 86.94 43.7016 88.46C43.7016 91.42 42.3616 93.22 40.1416 93.22C38.9416 93.22 38.2416 92.78 37.6416 91.68ZM41.5016 88.24V88.16C41.5016 85.84 40.8216 84.54 39.5816 84.54C38.3416 84.54 37.6816 85.82 37.6816 88.24C37.6816 90.88 38.2616 92.06 39.5616 92.06C40.8216 92.06 41.5016 90.7 41.5016 88.24ZM45.9527 83.48H49.2527C51.4927 83.48 52.6327 84.26 52.6327 85.78C52.6327 86.84 52.0527 87.58 50.9527 87.92V87.94C52.3127 88.26 53.0927 89.14 53.0927 90.36C53.0927 91.44 52.6127 92.22 51.6927 92.64C51.1327 92.88 50.3927 93 49.2527 93H45.9527V83.48ZM47.9727 84.68V87.44H48.5727C49.8127 87.44 50.4327 86.96 50.4327 86.04C50.4327 85.1 49.8527 84.68 48.5727 84.68H47.9727ZM47.9727 88.64V91.8H48.5727C50.1727 91.8 50.8927 91.32 50.8927 90.26C50.8927 89.16 50.1327 88.64 48.5727 88.64H47.9727ZM60.87 83.48H63.03V93H61.01V85.74L57.39 93H55.23V83.48H57.25V90.74L60.87 83.48ZM72.7517 86.58H70.6317C70.6517 84.84 70.2317 84.1 69.2717 84.1C68.1717 84.1 67.4917 85.3 67.4917 87.2C67.4917 90.12 68.8917 92.16 70.9117 92.16C71.4717 92.16 71.9717 92.06 72.6117 91.8V92.74C71.6917 93.08 70.9117 93.22 70.0517 93.22C66.9917 93.22 65.2917 91.3 65.2917 87.88C65.2917 84.9 66.7117 83.26 69.3117 83.26C71.6317 83.26 72.7117 84.3 72.7517 86.58Z" fill="#D9D9D9"/>
</svg>
