<svg width="8" height="8" viewBox="0 0 8 8" fill="none" xmlns="http://www.w3.org/2000/svg">
<g clip-path="url(#clip0_1787_11288)">
<path d="M7.12505 2.41249L4.3753 3.99999L7.12505 5.58774C7.1828 5.62049 7.2213 5.68149 7.2213 5.75149C7.2213 5.85499 7.1373 5.93899 7.0338 5.93899C6.9983 5.93899 6.96505 5.92899 6.9368 5.91199L6.93755 5.91249L4.18755 4.32499V7.50024C4.18755 7.60374 4.10355 7.68774 4.00005 7.68774C3.89655 7.68774 3.81255 7.60374 3.81255 7.50024V4.32524L1.0628 5.91274C1.0353 5.92949 1.00205 5.93924 0.966553 5.93924C0.863053 5.93924 0.779053 5.85524 0.779053 5.75174C0.779053 5.68174 0.817553 5.62074 0.874303 5.58849L0.875303 5.58799L3.62505 4.00024L0.875303 2.41274C0.818803 2.37974 0.781553 2.31924 0.781553 2.25024C0.781553 2.14649 0.865553 2.06249 0.969303 2.06249C1.0038 2.06274 1.03605 2.07174 1.06405 2.08799L1.06305 2.08749L3.8128 3.67524V0.500244C3.8128 0.396744 3.8968 0.312744 4.0003 0.312744C4.1038 0.312744 4.1878 0.396744 4.1878 0.500244V3.67549L6.9378 2.08774C6.96455 2.07199 6.99705 2.06274 7.0313 2.06274C7.10055 2.06274 7.1608 2.09999 7.19355 2.15549L7.19405 2.15649C7.2098 2.18349 7.21905 2.21574 7.21905 2.25024C7.21905 2.31949 7.18155 2.37974 7.12605 2.41224L7.12505 2.41249Z" fill="#FF0000"/>
</g>
<defs>
<clipPath id="clip0_1787_11288">
<rect width="8" height="8" fill="white" transform="matrix(1 0 0 -1 0 8)"/>
</clipPath>
</defs>
</svg>
