<svg width="50" height="50" viewBox="0 0 50 50" fill="none" xmlns="http://www.w3.org/2000/svg">
<path fill-rule="evenodd" clip-rule="evenodd" d="M25.8535 22.3889C22.8713 25.1333 19.9604 27.7309 19.9604 27.7309C19.5578 28.0897 19.5235 28.7069 19.8823 29.1095C20.2411 29.5113 20.8583 29.5465 21.2609 29.1876C21.2609 29.1876 28.8864 22.3811 32.1424 19.1251C32.6394 18.629 32.7888 18.2487 32.8154 18.0907C32.8832 17.689 32.7424 17.4057 32.5398 17.1997C32.3913 17.0477 32.1707 16.9035 31.8325 16.8889C31.6668 16.882 31.2985 16.9464 30.8024 17.1799C27.9644 18.5148 16.6795 26.0329 16.6795 26.0329C16.2305 26.3316 16.1095 26.9386 16.4082 27.3867C16.7078 27.8356 17.3147 27.9567 17.7628 27.6579C17.7628 27.6579 21.9631 24.856 25.8535 22.3889Z" fill="#333333"/>
<path fill-rule="evenodd" clip-rule="evenodd" d="M25 2.14844C12.3875 2.14844 2.14844 12.3875 2.14844 25C2.14844 37.6125 12.3875 47.8516 25 47.8516C37.6125 47.8516 47.8516 37.6125 47.8516 25C47.8516 12.3875 37.6125 2.14844 25 2.14844ZM25 4.10156C36.5344 4.10156 45.8984 13.4656 45.8984 25C45.8984 36.5344 36.5344 45.8984 25 45.8984C13.4656 45.8984 4.10156 36.5344 4.10156 25C4.10156 13.4656 13.4656 4.10156 25 4.10156Z" fill="#333333"/>
<path fill-rule="evenodd" clip-rule="evenodd" d="M16.4375 27.6183L18.5269 34.4154C18.5346 34.4403 18.5432 34.4652 18.5527 34.4892C18.775 35.0472 18.9982 35.3717 19.1578 35.5253C19.4463 35.8035 19.7424 35.8679 19.9879 35.861C20.333 35.8507 20.8893 35.6447 21.1099 34.8266C21.1254 34.7665 21.1365 34.7055 21.1408 34.6437L21.4567 30.2932L29.7105 36.364C30.5586 37.0079 31.3209 37.1443 31.8987 36.9684C32.4944 36.7864 33.0713 36.2404 33.3442 35.0781C33.346 35.0712 33.3477 35.0644 33.3485 35.0575L37.4226 15.8604C37.6656 14.838 37.5291 14.074 37.1969 13.6277C36.8114 13.1083 36.0826 12.7555 34.8431 13.0903C34.8096 13.0989 34.7761 13.11 34.7444 13.1229L10.8148 22.4034C10.7778 22.418 10.7418 22.4352 10.7066 22.4532C9.57261 23.0618 9.32024 23.758 9.3168 24.2087C9.31251 24.8156 9.73829 25.4027 10.4611 25.6929C10.4825 25.7015 10.504 25.7101 10.5263 25.7169L16.4375 27.6183ZM35.5865 14.9316C35.577 15.0707 35.5581 15.2595 35.5204 15.4183C35.5178 15.4269 35.5161 15.4355 35.5144 15.4441L31.4411 34.6386C31.4068 34.7802 31.339 34.9425 31.2935 35.0438C31.1853 34.9905 31.0128 34.9004 30.8883 34.8051C30.8831 34.8017 30.8788 34.7983 30.8737 34.7948L21.1889 27.6724C20.903 27.4621 20.5245 27.4235 20.2017 27.572C19.8789 27.7214 19.6626 28.0338 19.6368 28.3884L19.4609 30.8066L18.1543 26.5582C18.0608 26.2534 17.8238 26.0131 17.52 25.9152L11.8595 24.0936L35.395 14.9651C35.4586 14.9505 35.5255 14.9393 35.5865 14.9316Z" fill="#333333"/>
<path fill-rule="evenodd" clip-rule="evenodd" d="M20.6283 35.618L24.8741 31.9517C25.2818 31.5997 25.3273 30.9825 24.9754 30.5748C24.6225 30.167 24.0053 30.1215 23.5976 30.4735L19.3526 34.1398C18.944 34.4918 18.8994 35.109 19.2513 35.5167C19.6033 35.9254 20.2205 35.97 20.6283 35.618Z" fill="#333333"/>
</svg>
