<svg width="50" height="50" viewBox="0 0 50 50" fill="none" xmlns="http://www.w3.org/2000/svg">
<path fill-rule="evenodd" clip-rule="evenodd" d="M25 2.14844C12.3875 2.14844 2.14844 12.3875 2.14844 25C2.14844 37.6125 12.3875 47.8516 25 47.8516C37.6125 47.8516 47.8516 37.6125 47.8516 25C47.8516 12.3875 37.6125 2.14844 25 2.14844ZM25 4.10156C36.5344 4.10156 45.8984 13.4656 45.8984 25C45.8984 36.5344 36.5344 45.8984 25 45.8984C13.4656 45.8984 4.10156 36.5344 4.10156 25C4.10156 13.4656 13.4656 4.10156 25 4.10156Z" fill="#333333"/>
<path d="M18.0688 19.6553L25.1378 24.6035L32.2067 19.6553" stroke="#333333" stroke-width="2.12068" stroke-linecap="round" stroke-linejoin="round"/>
<path d="M11 30.9655V16.8276C11 15.2659 12.2659 14 13.8276 14H36.4482C38.0099 14 39.2758 15.2659 39.2758 16.8276V30.9655C39.2758 32.5271 38.0099 33.793 36.4482 33.793H13.8276C12.2659 33.793 11 32.5271 11 30.9655Z" stroke="#333333" stroke-width="2.12068"/>
</svg>
