<svg width="35" height="35" viewBox="0 0 35 35" fill="none" xmlns="http://www.w3.org/2000/svg">
<path d="M22.5926 4.19995C18.6716 5.45577 16.0993 8.54291 14.8757 13.4614C13.0402 20.839 10.7656 21.7798 3.36011 19.1557C6.01971 24.0682 11.4103 26.0378 14.8757 26.0378C18.3411 26.0378 27.3162 21.2129 26.2878 12.0416C25.3952 9.37048 24.1634 6.75659 22.5926 4.19995Z" fill="#D8D8D8"/>
<path d="M24.4185 22.0412L24.1484 22.3893L24.4596 22.701L34.1388 32.396L34.1391 32.3963C34.6203 32.8775 34.6203 33.6578 34.1391 34.1391C33.6579 34.6202 32.8779 34.6203 32.3966 34.1394C32.3965 34.1393 32.3964 34.1392 32.3963 34.1391L22.7194 24.4464L22.4072 24.1336L22.0584 24.4051C19.7949 26.1676 16.95 27.2171 13.8586 27.2171C6.48083 27.2171 0.5 21.2363 0.5 13.8586C0.5 6.48083 6.48083 0.5 13.8586 0.5C21.2363 0.5 27.2171 6.48083 27.2171 13.8586C27.2171 16.9422 26.1729 19.7805 24.4185 22.0412ZM13.8586 24.7525C19.8751 24.7525 24.7525 19.8751 24.7525 13.8586C24.7525 7.84201 19.8751 2.96464 13.8586 2.96464C7.84201 2.96464 2.96464 7.84201 2.96464 13.8586C2.96464 19.8751 7.84201 24.7525 13.8586 24.7525Z" fill="#333333" stroke="#333333"/>
</svg>
